<!DOCTYPE svg PUBLIC "-//W3C//DTD SVG 1.1//EN" "http://www.w3.org/Graphics/SVG/1.1/DTD/svg11.dtd">
<!-- Uploaded to: SVG Repo, www.svgrepo.com, Transformed by: SVG Repo Mixer Tools -->
<svg version="1.1" id="Layer_1" xmlns="http://www.w3.org/2000/svg" xmlns:xlink="http://www.w3.org/1999/xlink" viewBox="0 0 512 512" xml:space="preserve" width="800px" height="800px" fill="#000000">
<g id="SVGRepo_bgCarrier" stroke-width="0"/>
<g id="SVGRepo_tracerCarrier" stroke-linecap="round" stroke-linejoin="round"/>
<g id="SVGRepo_iconCarrier"> <path style="fill:#AFB9D2;" d="M475.931,101.828l-29.928,29.928l-41.806-11.201L392.995,78.75l29.954-29.954 c13.522-13.522,0.517-36.068-18.031-31.413c-14.16,3.554-27.575,10.838-38.686,21.871c-21.718,21.565-29.012,53.035-21.784,81.278 c0.836,3.267,0.049,6.716-2.337,9.101L66.594,405.15c13.467,0.488,26.784,5.714,37.045,15.959 c10.254,10.261,15.47,23.59,15.957,37.054l275.348-275.349c2.406-2.406,5.894-3.184,9.183-2.315 c28.056,7.421,59.152,0.238,81.154-21.764c11.136-11.136,18.487-24.606,22.07-38.834C512.031,101.33,489.474,88.286,475.931,101.828 z"/> <g> <path style="fill:#959CB5;" d="M67.962,512c-14.149,0-28.292-5.377-39.063-16.15c-21.528-21.536-21.528-56.583,0-78.119 c21.552-21.544,56.6-21.528,78.119,0c21.536,21.536,21.536,56.583,0,78.119C96.253,506.614,82.103,512,67.962,512z M67.962,424.008 c-8.401,0-16.801,3.202-23.198,9.591c-12.784,12.784-12.784,33.603,0,46.386c12.793,12.774,33.593,12.793,46.386,0 c12.784-12.793,12.784-33.593,0-46.386C84.754,427.21,76.362,424.008,67.962,424.008z"/> <path style="fill:#959CB5;" d="M373.116,151.632c-4.575-4.575-11.987-4.575-16.564,0l-72.765,72.769 c-3.659,3.659-9.593,3.659-13.252,0l-11.596-11.596l-59.634,59.634l11.597,11.597c3.659,3.659,3.659,9.592,0,13.252l-86.893,86.895 c-4.575,4.575-4.575,11.987,0,16.564c2.288,2.288,5.28,3.432,8.281,3.432c3.001,0,5.994-1.144,8.281-3.432l86.891-86.895 c3.659-3.659,9.593-3.659,13.252,0l11.595,11.595l59.634-59.634l-11.596-11.596c-3.659-3.659-3.659-9.592,0-13.252l72.767-72.769 C377.691,163.619,377.691,156.207,373.116,151.632z"/> </g> <path style="fill:#FFDC64;" d="M478.548,458.919L110.923,91.293l-33.131,33.129l304.541,304.541l24.231,50.734l25.603,25.603 c3.659,3.659,9.592,3.659,13.251,0l33.129-33.129C482.208,468.51,482.207,462.578,478.548,458.919z"/> <path style="fill:#FFC850;" d="M446.223,491.244l-25.603-25.603l-24.231-50.734L125.123,143.64c-3.659-3.659-3.659-9.593,0-13.252 l12.448-12.448l-26.647-26.647l-33.131,33.129l304.541,304.541l24.231,50.734l25.603,25.603c3.659,3.659,9.592,3.659,13.251,0 l14.056-14.056C455.815,494.904,449.882,494.904,446.223,491.244z"/> <rect x="81.751" y="34.519" transform="matrix(-0.7071 0.7071 -0.7071 -0.7071 229.0837 30.3718)" style="fill:#959CB5;" width="53.001" height="56.222"/> <path style="fill:#AFB9D2;" d="M75.382,55.752c-3.659-3.659-9.593-3.659-13.252,0L22.375,95.508 c-29.276,29.276-21.257,84.758,8.019,114.033l8.227-19.352c2.074-4.88,1.322-10.244-0.958-15.031 c-4.471-9.385-2.343-21.127,6.384-28.265c7.282-5.957,17.272-6.317,25.442-2.244c3.78,1.883,8.278,1.442,11.239-1.568l40.656-41.325 L75.382,55.752z"/> <path style="fill:#959CB5;" d="M58.169,124.844c-22.082,0-39.982,17.9-39.982,39.982c0,13.626,6.844,25.626,17.252,32.845 l3.18-7.481c2.074-4.881,1.322-10.244-0.958-15.031c-4.471-9.383-2.343-21.127,6.384-28.265c7.282-5.957,17.272-6.317,25.443-2.244 c3.78,1.883,8.278,1.442,11.239-1.568l6.035-6.134C79.501,129.499,69.391,124.844,58.169,124.844z"/> <path style="fill:#AFB9D2;" d="M154.893,69.004l13.252-13.252c3.659-3.659,3.659-9.593,0-13.252L128.389,2.744 c-3.659-3.659-9.593-3.659-13.252,0l-13.251,13.252c-3.659,3.659-3.659,9.593,0,13.252l39.755,39.755 C145.3,72.663,151.234,72.663,154.893,69.004z"/> </g>
</svg>