<svg id="visual" viewBox="0 0 900 600" width="900" height="600" xmlns="http://www.w3.org/2000/svg" xmlns:xlink="http://www.w3.org/1999/xlink" version="1.1"><rect x="0" y="0" width="900" height="600" fill="#caecfd"></rect><path d="M0 348L37.5 334.7C75 321.3 150 294.7 225 286.5C300 278.3 375 288.7 450 272.7C525 256.7 600 214.3 675 191.3C750 168.3 825 164.7 862.5 162.8L900 161L900 601L862.5 601C825 601 750 601 675 601C600 601 525 601 450 601C375 601 300 601 225 601C150 601 75 601 37.5 601L0 601Z" fill="#6dceff" stroke-linecap="round" stroke-linejoin="miter"></path></svg>