<?xml version="1.0" encoding="UTF-8" standalone="no"?>
<!DOCTYPE svg PUBLIC "-//W3C//DTD SVG 1.1//EN" "http://www.w3.org/Graphics/SVG/1.1/DTD/svg11.dtd">
<svg xmlns="http://www.w3.org/2000/svg" version="1.1" viewBox="0.00 0.00 500.00 500.00">
<g stroke-width="2.00" fill="none" stroke-linecap="butt">
<path stroke="#047cc3" vector-effect="non-scaling-stroke" d="
  M 206.75 111.54
  L 205.84 122.90
  A 0.73 0.73 0.0 0 0 206.51 123.68
  L 220.25 124.71"
/>
<path stroke="#047cc3" vector-effect="non-scaling-stroke" d="
  M 261.18 116.29
  L 260.27 127.59
  Q 260.23 128.18 260.81 128.24
  L 275.25 129.71"
/>
<path stroke="#6f5c80" vector-effect="non-scaling-stroke" d="
  M 254.37 221.61
  Q 222.61 218.09 190.56 215.96"
/>
<path stroke="#e78274" vector-effect="non-scaling-stroke" d="
  M 272.00 250.46
  Q 267.95 248.76 264.54 251.50"
/>
<path stroke="#6f5c80" vector-effect="non-scaling-stroke" d="
  M 249.21 252.75
  L 190.29 247.75"
/>
<path stroke="#e78274" vector-effect="non-scaling-stroke" d="
  M 175.75 243.29
  Q 172.37 240.95 168.25 241.21"
/>
<path stroke="#f4d2ac" vector-effect="non-scaling-stroke" d="
  M 171.28 260.86
  C 164.17 260.34 159.78 254.53 162.28 247.62
  C 162.95 245.74 164.37 244.54 165.46 242.75"
/>
<path stroke="#014a6f" vector-effect="non-scaling-stroke" d="
  M 246.04 283.75
  Q 246.18 284.97 245.79 286.25
  Q 245.63 286.78 245.07 286.83
  C 243.43 286.98 237.23 286.88 236.46 284.75"
/>
<path stroke="#6f5c80" vector-effect="non-scaling-stroke" d="
  M 236.46 284.75
  Q 236.59 283.49 236.18 282.57"
/>
<path stroke="#6f5c80" vector-effect="non-scaling-stroke" d="
  M 198.46 279.25
  Q 197.29 280.01 197.69 282.09"
/>
<path stroke="#014a6f" vector-effect="non-scaling-stroke" d="
  M 197.69 282.09
  Q 192.87 282.80 188.79 281.61
  Q 188.11 281.41 188.26 280.72
  L 188.96 277.50"
/>
<path stroke="#f4d2ac" vector-effect="non-scaling-stroke" d="
  M 274.43 252.60
  Q 280.48 265.09 268.03 269.58"
/>
<path stroke="#e78274" vector-effect="non-scaling-stroke" d="
  M 202.46 293.50
  Q 193.81 296.26 184.68 295.67
  Q 184.16 295.63 184.16 295.11
  C 184.20 289.34 183.85 285.20 177.25 283.46"
/>
<path stroke="#6e1311" vector-effect="non-scaling-stroke" d="
  M 236.46 284.75
  Q 235.78 285.78 236.67 286.37
  Q 243.03 290.63 248.45 285.08"
/>
<path stroke="#e78274" vector-effect="non-scaling-stroke" d="
  M 255.75 290.46
  Q 247.25 291.92 247.70 300.66
  A 0.56 0.56 0.0 0 1 247.07 301.24
  Q 237.62 300.00 229.04 296.00"
/>
<path stroke="#6e1311" vector-effect="non-scaling-stroke" d="
  M 197.69 282.09
  Q 193.83 285.11 189.43 283.28
  Q 188.22 282.77 187.60 281.67
  Q 187.01 280.60 186.66 279.33"
/>
<path stroke="#7cacb8" vector-effect="non-scaling-stroke" d="
  M 242.25 209.21
  Q 247.55 209.85 262.01 211.01
  C 264.35 211.20 265.49 210.36 265.71 207.94
  Q 268.22 180.49 270.55 153.00
  Q 270.85 149.38 267.69 148.84
  Q 260.73 147.64 250.25 147.21"
/>
<path stroke="#79b9d3" vector-effect="non-scaling-stroke" d="
  M 250.25 147.21
  Q 222.21 144.59 194.14 142.16
  C 189.27 141.74 185.74 140.53 185.30 146.57
  Q 183.94 164.98 180.90 198.37
  C 180.38 204.19 182.48 204.10 187.67 204.62
  Q 214.92 207.33 242.25 209.21"
/>
<path stroke="#f4d2ac" vector-effect="non-scaling-stroke" d="
  M 250.25 147.21
  C 248.52 146.89 247.37 147.47 247.18 149.34
  Q 246.58 155.51 247.10 161.39"
/>
<path stroke="#797064" vector-effect="non-scaling-stroke" d="
  M 247.10 161.39
  Q 243.81 161.18 242.41 163.41
  Q 236.79 172.36 245.34 177.65"
/>
<path stroke="#f4d2ac" vector-effect="non-scaling-stroke" d="
  M 245.34 177.65
  Q 243.02 192.86 242.25 209.21"
/>
<path stroke="#7b6249" vector-effect="non-scaling-stroke" d="
  M 245.34 177.65
  Q 255.95 170.48 247.10 161.39"
/>
<path stroke="#797064" vector-effect="non-scaling-stroke" d="
  M 206.6648 173.8590
  A 7.82 5.20 95.1 0 0 212.5394 166.5323
  A 7.82 5.20 95.1 0 0 208.0552 158.2810
  A 7.82 5.20 95.1 0 0 202.1806 165.6077
  A 7.82 5.20 95.1 0 0 206.6648 173.8590"
/>
<path stroke="#e779a1" vector-effect="non-scaling-stroke" d="
  M 239.00 181.34
  L 212.81 178.98
  Q 212.15 178.92 212.27 179.58
  C 215.35 196.57 234.05 198.94 239.41 181.96
  Q 239.59 181.40 239.00 181.34"
/>
<path stroke="#6f5c80" vector-effect="non-scaling-stroke" d="
  M 213.54 232.00
  L 212.85 235.80
  Q 212.75 236.33 213.19 236.65
  L 216.75 239.29"
/>
<path stroke="#714564" vector-effect="non-scaling-stroke" d="
  M 216.75 239.29
  C 219.76 243.18 224.73 240.36 228.20 238.75
  Q 228.67 238.53 228.86 238.04
  Q 230.62 233.39 227.20 229.97
  Q 226.81 229.57 226.26 229.56
  Q 224.11 229.48 222.98 227.48
  Q 222.73 227.04 222.24 226.91
  Q 220.24 226.39 219.69 228.20
  Q 219.55 228.68 219.04 228.66
  Q 215.23 228.54 213.54 232.00"
/>
<path stroke="#047cc3" vector-effect="non-scaling-stroke" d="
  M 216.75 239.29
  L 219.20 240.38
  Q 219.58 240.55 219.73 240.16
  C 221.38 236.03 217.08 233.88 213.54 232.00"
/>
<path stroke="#e78274" vector-effect="non-scaling-stroke" d="
  M 198.8714 292.9708
  A 2.68 2.07 79.0 0 0 200.3920 289.9450
  A 2.68 2.07 79.0 0 0 197.8486 287.7092
  A 2.68 2.07 79.0 0 0 196.3280 290.7350
  A 2.68 2.07 79.0 0 0 198.8714 292.9708"
/>
<path stroke="#e78274" vector-effect="non-scaling-stroke" d="
  M 233.0200 295.6843
  A 2.58 2.21 120.0 0 0 236.2239 294.5550
  A 2.58 2.21 120.0 0 0 235.6000 291.2157
  A 2.58 2.21 120.0 0 0 232.3961 292.3450
  A 2.58 2.21 120.0 0 0 233.0200 295.6843"
/>
</g>
<path fill="#0193de" d="
  M 206.75 111.54
  L 205.84 122.90
  A 0.73 0.73 0.0 0 0 206.51 123.68
  L 220.25 124.71
  L 240.94 126.66
  A 0.69 0.69 0.0 0 0 241.70 126.04
  L 242.76 115.99
  Q 242.88 114.85 244.02 114.94
  L 261.18 116.29
  L 260.27 127.59
  Q 260.23 128.18 260.81 128.24
  L 275.25 129.71
  C 279.03 130.25 288.24 129.35 287.75 135.00
  Q 284.11 177.12 280.52 219.25
  Q 280.11 224.11 275.01 223.19
  Q 269.01 222.10 254.37 221.61
  Q 222.61 218.09 190.56 215.96
  L 167.92 213.69
  A 2.45 2.44 -86.4 0 1 165.72 211.18
  Q 165.76 209.75 165.94 207.52
  Q 171.03 144.59 173.22 123.50
  C 173.59 119.87 183.88 121.87 186.40 122.04
  A 0.79 0.79 0.0 0 0 187.25 121.33
  L 188.29 110.83
  A 1.07 1.06 -84.3 0 1 189.45 109.88
  L 206.75 111.54
  Z
  M 242.25 209.21
  Q 247.55 209.85 262.01 211.01
  C 264.35 211.20 265.49 210.36 265.71 207.94
  Q 268.22 180.49 270.55 153.00
  Q 270.85 149.38 267.69 148.84
  Q 260.73 147.64 250.25 147.21
  Q 222.21 144.59 194.14 142.16
  C 189.27 141.74 185.74 140.53 185.30 146.57
  Q 183.94 164.98 180.90 198.37
  C 180.38 204.19 182.48 204.10 187.67 204.62
  Q 214.92 207.33 242.25 209.21
  Z"
/>
<path fill="#0665a7" d="
  M 206.75 111.54
  L 220.41 112.81
  A 0.77 0.76 -85.1 0 1 221.10 113.64
  L 220.25 124.71
  L 206.51 123.68
  A 0.73 0.73 0.0 0 1 205.84 122.90
  L 206.75 111.54
  Z"
/>
<path fill="#0665a7" d="
  M 261.18 116.29
  L 274.99 117.44
  Q 275.60 117.49 275.58 118.10
  L 275.25 129.71
  L 260.81 128.24
  Q 260.23 128.18 260.27 127.59
  L 261.18 116.29
  Z"
/>
<path fill="#f1dfc7" d="
  M 250.25 147.21
  C 248.52 146.89 247.37 147.47 247.18 149.34
  Q 246.58 155.51 247.10 161.39
  Q 243.81 161.18 242.41 163.41
  Q 236.79 172.36 245.34 177.65
  Q 243.02 192.86 242.25 209.21
  Q 214.92 207.33 187.67 204.62
  C 182.48 204.10 180.38 204.19 180.90 198.37
  Q 183.94 164.98 185.30 146.57
  C 185.74 140.53 189.27 141.74 194.14 142.16
  Q 222.21 144.59 250.25 147.21
  Z
  M 206.6648 173.8590
  A 7.82 5.20 95.1 0 0 212.5394 166.5323
  A 7.82 5.20 95.1 0 0 208.0552 158.2810
  A 7.82 5.20 95.1 0 0 202.1806 165.6077
  A 7.82 5.20 95.1 0 0 206.6648 173.8590
  Z
  M 239.00 181.34
  L 212.81 178.98
  Q 212.15 178.92 212.27 179.58
  C 215.35 196.57 234.05 198.94 239.41 181.96
  Q 239.59 181.40 239.00 181.34
  Z"
/>
<path fill="#f6c491" d="
  M 250.25 147.21
  Q 260.73 147.64 267.69 148.84
  Q 270.85 149.38 270.55 153.00
  Q 268.22 180.49 265.71 207.94
  C 265.49 210.36 264.35 211.20 262.01 211.01
  Q 247.55 209.85 242.25 209.21
  Q 243.02 192.86 245.34 177.65
  Q 255.95 170.48 247.10 161.39
  Q 246.58 155.51 247.18 149.34
  C 247.37 147.47 248.52 146.89 250.25 147.21
  Z"
/>
<ellipse fill="#000000" cx="0.00" cy="0.00" transform="translate(207.36,166.07) rotate(95.1)" rx="7.82" ry="5.20"/>
<path fill="#000000" d="
  M 247.10 161.39
  Q 255.95 170.48 245.34 177.65
  Q 236.79 172.36 242.41 163.41
  Q 243.81 161.18 247.10 161.39
  Z"
/>
<path fill="#dd137b" d="
  M 212.81 178.98
  L 239.00 181.34
  Q 239.59 181.40 239.41 181.96
  C 234.05 198.94 215.35 196.57 212.27 179.58
  Q 212.15 178.92 212.81 178.98
  Z"
/>
<path fill="#dc2521" d="
  M 190.56 215.96
  Q 222.61 218.09 254.37 221.61
  Q 268.20 233.04 272.00 250.46
  Q 267.95 248.76 264.54 251.50
  C 262.79 242.37 261.12 235.70 252.94 230.41
  A 1.32 1.32 0.0 0 0 250.91 231.41
  L 249.21 252.75
  L 190.29 247.75
  L 192.15 225.56
  A 0.59 0.59 0.0 0 0 191.35 224.96
  C 182.89 228.27 179.12 235.06 175.75 243.29
  Q 172.37 240.95 168.25 241.21
  C 170.13 238.85 171.46 235.51 172.55 233.68
  Q 177.25 225.78 184.27 221.04
  Q 188.44 218.22 190.56 215.96
  Z
  M 213.54 232.00
  L 212.85 235.80
  Q 212.75 236.33 213.19 236.65
  L 216.75 239.29
  C 219.76 243.18 224.73 240.36 228.20 238.75
  Q 228.67 238.53 228.86 238.04
  Q 230.62 233.39 227.20 229.97
  Q 226.81 229.57 226.26 229.56
  Q 224.11 229.48 222.98 227.48
  Q 222.73 227.04 222.24 226.91
  Q 220.24 226.39 219.69 228.20
  Q 219.55 228.68 219.04 228.66
  Q 215.23 228.54 213.54 232.00
  Z"
/>
<path fill="#0665a7" d="
  M 216.75 239.29
  L 219.20 240.38
  Q 219.58 240.55 219.73 240.16
  C 221.38 236.03 217.08 233.88 213.54 232.00
  Q 215.23 228.54 219.04 228.66
  Q 219.55 228.68 219.69 228.20
  Q 220.24 226.39 222.24 226.91
  Q 222.73 227.04 222.98 227.48
  Q 224.11 229.48 226.26 229.56
  Q 226.81 229.57 227.20 229.97
  Q 230.62 233.39 228.86 238.04
  Q 228.67 238.53 228.20 238.75
  C 224.73 240.36 219.76 243.18 216.75 239.29
  Z"
/>
<path fill="#0193de" d="
  M 213.54 232.00
  C 217.08 233.88 221.38 236.03 219.73 240.16
  Q 219.58 240.55 219.20 240.38
  L 216.75 239.29
  L 213.19 236.65
  Q 212.75 236.33 212.85 235.80
  L 213.54 232.00
  Z"
/>
<path fill="#f1dfc7" d="
  M 168.25 241.21
  Q 172.37 240.95 175.75 243.29
  Q 176.53 245.51 177.47 247.68
  C 180.17 253.92 178.37 259.06 171.28 260.86
  C 164.17 260.34 159.78 254.53 162.28 247.62
  C 162.95 245.74 164.37 244.54 165.46 242.75
  L 168.25 241.21
  Z"
/>
<path fill="#f6c491" d="
  M 165.46 242.75
  C 164.37 244.54 162.95 245.74 162.28 247.62
  C 159.78 254.53 164.17 260.34 171.28 260.86
  C 158.49 262.60 152.73 246.65 165.46 242.75
  Z"
/>
<path fill="#0193de" d="
  M 190.29 247.75
  L 249.21 252.75
  C 249.25 255.39 249.28 262.69 246.77 264.26
  Q 246.39 264.50 245.94 264.50
  L 242.21 264.50
  Q 241.57 264.50 241.71 265.12
  L 246.04 283.75
  Q 246.18 284.97 245.79 286.25
  Q 245.63 286.78 245.07 286.83
  C 243.43 286.98 237.23 286.88 236.46 284.75
  Q 236.59 283.49 236.18 282.57
  Q 234.64 274.40 233.02 266.50
  C 232.63 264.58 232.62 263.67 230.34 263.48
  Q 219.99 262.61 209.69 261.54
  Q 207.66 261.33 205.64 261.58
  Q 205.13 261.64 204.95 262.11
  L 198.46 279.25
  Q 197.29 280.01 197.69 282.09
  Q 192.87 282.80 188.79 281.61
  Q 188.11 281.41 188.26 280.72
  L 188.96 277.50
  L 195.72 261.49
  A 0.92 0.92 0.0 0 0 194.85 260.21
  Q 192.28 260.26 190.21 258.87
  Q 189.72 258.54 189.75 257.96
  L 190.29 247.75
  Z"
/>
<path fill="#f1dfc7" d="
  M 272.00 250.46
  L 274.43 252.60
  Q 280.48 265.09 268.03 269.58
  C 260.85 268.16 256.97 262.02 261.48 255.67
  Q 262.98 253.57 264.54 251.50
  Q 267.95 248.76 272.00 250.46
  Z"
/>
<path fill="#f6c491" d="
  M 274.43 252.60
  C 284.65 258.69 278.80 270.94 268.03 269.58
  Q 280.48 265.09 274.43 252.60
  Z"
/>
<path fill="#000000" d="
  M 188.96 277.50
  L 188.26 280.72
  Q 188.11 281.41 188.79 281.61
  Q 192.87 282.80 197.69 282.09
  Q 193.83 285.11 189.43 283.28
  Q 188.22 282.77 187.60 281.67
  Q 187.01 280.60 186.66 279.33
  Q 187.93 279.00 188.96 277.50
  Z"
/>
<path fill="#dc2521" d="
  M 198.46 279.25
  Q 200.73 281.76 199.93 285.10
  Q 199.81 285.61 200.10 286.03
  C 201.88 288.60 203.61 290.02 202.46 293.50
  Q 193.81 296.26 184.68 295.67
  Q 184.16 295.63 184.16 295.11
  C 184.20 289.34 183.85 285.20 177.25 283.46
  L 183.17 281.33
  Q 183.63 281.16 183.98 280.81
  Q 185.02 279.78 186.66 279.33
  Q 187.01 280.60 187.60 281.67
  Q 188.22 282.77 189.43 283.28
  Q 193.83 285.11 197.69 282.09
  Q 197.29 280.01 198.46 279.25
  Z
  M 198.8714 292.9708
  A 2.68 2.07 79.0 0 0 200.3920 289.9450
  A 2.68 2.07 79.0 0 0 197.8486 287.7092
  A 2.68 2.07 79.0 0 0 196.3280 290.7350
  A 2.68 2.07 79.0 0 0 198.8714 292.9708
  Z"
/>
<path fill="#dc2521" d="
  M 236.18 282.57
  Q 236.59 283.49 236.46 284.75
  Q 235.78 285.78 236.67 286.37
  Q 243.03 290.63 248.45 285.08
  L 250.63 287.01
  Q 251.01 287.35 251.49 287.52
  Q 254.03 288.39 255.75 290.46
  Q 247.25 291.92 247.70 300.66
  A 0.56 0.56 0.0 0 1 247.07 301.24
  Q 237.62 300.00 229.04 296.00
  C 228.76 292.18 230.38 291.13 232.98 288.95
  Q 233.38 288.61 233.38 288.08
  Q 233.36 284.71 236.18 282.57
  Z
  M 233.0200 295.6843
  A 2.58 2.21 120.0 0 0 236.2239 294.5550
  A 2.58 2.21 120.0 0 0 235.6000 291.2157
  A 2.58 2.21 120.0 0 0 232.3961 292.3450
  A 2.58 2.21 120.0 0 0 233.0200 295.6843
  Z"
/>
<path fill="#f1dfc7" d="
  M 177.25 283.46
  C 183.85 285.20 184.20 289.34 184.16 295.11
  Q 184.16 295.63 184.68 295.67
  Q 193.81 296.26 202.46 293.50
  C 202.68 300.41 181.83 298.78 177.83 298.03
  C 165.33 295.68 169.83 287.53 177.25 283.46
  Z"
/>
<path fill="#000000" d="
  M 246.04 283.75
  L 248.45 285.08
  Q 243.03 290.63 236.67 286.37
  Q 235.78 285.78 236.46 284.75
  C 237.23 286.88 243.43 286.98 245.07 286.83
  Q 245.63 286.78 245.79 286.25
  Q 246.18 284.97 246.04 283.75
  Z"
/>
<ellipse fill="#f1dfc7" cx="0.00" cy="0.00" transform="translate(198.36,290.34) rotate(79.0)" rx="2.68" ry="2.07"/>
<path fill="#f1dfc7" d="
  M 255.75 290.46
  C 258.72 292.68 262.53 297.61 261.25 301.69
  Q 261.10 302.18 260.65 302.41
  C 251.99 307.04 238.24 303.44 230.30 299.18
  Q 228.58 298.26 229.04 296.00
  Q 237.62 300.00 247.07 301.24
  A 0.56 0.56 0.0 0 0 247.70 300.66
  Q 247.25 291.92 255.75 290.46
  Z"
/>
<ellipse fill="#f1dfc7" cx="0.00" cy="0.00" transform="translate(234.31,293.45) rotate(120.0)" rx="2.58" ry="2.21"/>
</svg>
